<svg viewBox="0 0 519 507" fill="none" xmlns="http://www.w3.org/2000/svg">
    <path d="M421.449 409.987H308.326L308.252 409.932L307.361 409.244L167.173 299.819L224.551 253.799L420.502 409.244L421.449 409.987Z"
          fill="#4A9079"/>
    <path d="M421.449 97.6113H308.326L308.252 97.6671L307.361 98.3551L167.173 207.78L224.551 253.8L420.502 98.3551L421.449 97.6113Z"
          fill="#4A9079"/>
    <path d="M167.193 260.736V299.709V299.839L167.211 409.245V409.989L167.137 409.933L166.264 409.245L98.0454 355.323L97.8784 355.193L96.8945 354.43V153.17L97.8784 152.408L98.0454 152.277L166.264 98.3551L167.137 97.6671L167.211 97.6113V98.3551L167.193 207.762V207.892V253.8V260.736Z"
          fill="#4A9079"/>
</svg>
