<svg width="480" height="158" viewBox="0 0 480 158" fill="none" xmlns="http://www.w3.org/2000/svg">
<path d="M147.562 108.119V50.5496H156.372V74.4755H157.734C161.315 70.5147 168.442 62.5413 179.126 50.5496H190.661C186.333 55.3163 177.712 64.7635 164.786 78.8911C169.269 83.7614 178.218 93.5022 191.621 108.119H179.684C176.051 104.049 168.735 95.9144 157.734 83.7096H156.372V108.119H147.562Z" fill="#F0EAE6"/>
<path d="M194.021 108.119C196.745 98.5396 202.194 79.3459 210.361 50.5496H225.982C228.707 60.1291 234.155 79.3228 242.322 108.119H233.19C232.546 105.874 231.293 101.349 229.425 94.55H206.918C206.332 96.7952 205.073 101.32 203.154 108.119H194.021ZM209.16 86.3578H227.184C225.793 81.2744 223.017 71.1825 218.856 56.0878H217.494C216.103 61.1193 213.327 71.2113 209.166 86.3578H209.16Z" fill="#F0EAE6"/>
<path d="M247.94 108.119V50.5496H270.93C278.568 50.5496 284.413 52.5069 288.471 56.4101C292.58 60.3191 294.638 66.1797 294.638 73.9919V84.7516C294.638 92.6214 292.58 98.482 288.471 102.333C284.413 106.185 278.562 108.113 270.93 108.113H247.94V108.119ZM256.912 100.088H271.01C275.976 100.088 279.66 98.8332 282.068 96.3174C284.471 93.7498 285.672 89.9732 285.672 84.9934V73.6695C285.672 68.6379 284.471 64.8901 282.068 62.4262C279.666 59.9679 275.982 58.736 271.01 58.736H256.912V100.088Z" fill="#F0EAE6"/>
<path d="M304.649 108.119V50.5496H340.777V58.6611H313.46V75.1203H338.536V83.2318H313.46V100.094H341.179V108.125H304.649V108.119Z" fill="#F0EAE6"/>
<path d="M350.48 108.119V50.5496H367.544C370.108 59.1677 375.286 76.3753 383.085 102.178H384.447V50.5496H393.178V108.119H376.114C373.55 99.501 368.372 82.2646 360.573 56.4101H359.211V108.119H350.48Z" fill="#F0EAE6"/>
<path d="M400.937 108.119C403.661 98.5396 409.11 79.3459 417.277 50.5496H432.898C435.623 60.1291 441.071 79.3228 449.238 108.119H440.106C439.462 105.874 438.209 101.349 436.341 94.55H413.834C413.248 96.7952 411.989 101.32 410.07 108.119H400.937ZM416.076 86.3578H434.1C432.709 81.2744 429.933 71.1825 425.772 56.0878H424.409C423.019 61.1193 420.243 71.2113 416.082 86.3578H416.076Z" fill="#F0EAE6"/>
<path d="M130.487 127.694H95.4624L95.4394 127.677L95.1635 127.464L51.7593 93.5845L69.5244 79.3361L130.194 127.464L130.487 127.694Z" fill="#4A9079"/>
<path d="M130.487 30.9781H95.4624L95.4394 30.9954L95.1635 31.2084L51.7593 65.0881L69.5244 79.3366L130.194 31.2084L130.487 30.9781Z" fill="#4A9079"/>
<path d="M51.7653 81.4839V93.5505V93.5908L51.7711 127.465V127.695L51.7481 127.678L51.478 127.465L30.3563 110.77L30.3046 110.729L30 110.493V48.1799L30.3046 47.9439L30.3563 47.9036L51.478 31.2084L51.7481 30.9954L51.7711 30.9781V31.2084L51.7653 65.0824V65.1227V79.3366V81.4839Z" fill="#4A9079"/>
</svg>
