<svg width="480" height="158" viewBox="0 0 480 158" fill="none" xmlns="http://www.w3.org/2000/svg">
<path d="M147.562 108.036V50.4661H156.372V74.392H157.734C161.315 70.4313 168.442 62.4579 179.126 50.4661H190.661C186.333 55.2329 177.712 64.6801 164.786 78.8076C169.269 83.678 178.218 93.4188 191.621 108.036H179.684C176.051 103.966 168.735 95.8309 157.734 83.6262H156.372V108.036H147.562Z" fill="#0B1D2E"/>
<path d="M194.021 108.036C196.745 98.4561 202.194 79.2624 210.361 50.4661H225.982C228.707 60.0457 234.155 79.2394 242.322 108.036H233.19C232.546 105.79 231.293 101.266 229.425 94.4665H206.918C206.332 96.7118 205.073 101.237 203.154 108.036H194.021ZM209.16 86.2744H227.184C225.793 81.191 223.017 71.0991 218.856 56.0043H217.494C216.103 61.0359 213.327 71.1278 209.166 86.2744H209.16Z" fill="#0B1D2E"/>
<path d="M247.94 108.036V50.4661H270.93C278.568 50.4661 284.413 52.4235 288.471 56.3267C292.58 60.2357 294.638 66.0963 294.638 73.9085V84.6682C294.638 92.538 292.58 98.3985 288.471 102.25C284.413 106.101 278.562 108.03 270.93 108.03H247.94V108.036ZM256.912 100.005H271.01C275.976 100.005 279.66 98.7497 282.068 96.2339C284.471 93.6663 285.672 89.8898 285.672 84.91V73.5861C285.672 68.5545 284.471 64.8067 282.068 62.3427C279.666 59.8845 275.982 58.6525 271.01 58.6525H256.912V100.005Z" fill="#0B1D2E"/>
<path d="M304.649 108.036V50.4661H340.777V58.5777H313.46V75.0368H338.536V83.1484H313.46V100.01H341.179V108.041H304.649V108.036Z" fill="#0B1D2E"/>
<path d="M350.48 108.036V50.4661H367.544C370.108 59.0843 375.286 76.2918 383.085 102.095H384.447V50.4661H393.178V108.036H376.114C373.55 99.4175 368.372 82.1812 360.573 56.3267H359.211V108.036H350.48Z" fill="#0B1D2E"/>
<path d="M400.937 108.036C403.661 98.4561 409.11 79.2624 417.277 50.4661H432.898C435.623 60.0457 441.071 79.2394 449.238 108.036H440.106C439.462 105.79 438.209 101.266 436.341 94.4665H413.834C413.248 96.7118 411.989 101.237 410.07 108.036H400.937ZM416.076 86.2744H434.1C432.709 81.191 429.933 71.0991 425.772 56.0043H424.409C423.019 61.0359 420.243 71.1278 416.082 86.2744H416.076Z" fill="#0B1D2E"/>
<path d="M130.487 127.611H95.4624L95.4394 127.594L95.1635 127.381L51.7593 93.5012L69.5244 79.2527L130.194 127.381L130.487 127.611Z" fill="#4A9079"/>
<path d="M130.487 30.8948H95.4624L95.4394 30.912L95.1635 31.1251L51.7593 65.0047L69.5244 79.2532L130.194 31.1251L130.487 30.8948Z" fill="#4A9079"/>
<path d="M51.7653 81.4006V93.4671V93.5074L51.7711 127.381V127.612L51.7481 127.594L51.478 127.381L30.3563 110.686L30.3046 110.646L30 110.41V48.0966L30.3046 47.8605L30.3563 47.8202L51.478 31.1251L51.7481 30.912L51.7711 30.8948V31.1251L51.7653 64.999V65.0393V79.2532V81.4006Z" fill="#4A9079"/>
</svg>
