<svg width="505" height="151" viewBox="0 0 505 151" fill="none" xmlns="http://www.w3.org/2000/svg">
    <path d="M423.925 140.152C423.925 136.219 423.925 128.341 423.925 116.519C425.441 116.519 428.451 116.519 432.956 116.519C434.384 116.519 435.659 116.794 436.78 117.343C437.878 117.892 438.757 118.673 439.416 119.683C440.076 120.716 440.405 121.947 440.405 123.375C440.405 123.485 440.405 123.628 440.405 123.804C440.405 125.232 440.065 126.451 439.383 127.462C438.724 128.495 437.834 129.286 436.714 129.835C435.593 130.363 434.34 130.626 432.956 130.626C431.594 130.626 429.528 130.626 426.759 130.626C426.759 132.209 426.759 135.384 426.759 140.152C426.276 140.152 425.331 140.152 423.925 140.152ZM426.759 128.055C427.748 128.055 429.715 128.055 432.659 128.055C434.176 128.055 435.373 127.682 436.252 126.935C437.131 126.188 437.571 125.122 437.571 123.738C437.571 123.672 437.571 123.562 437.571 123.408C437.571 122.046 437.131 120.98 436.252 120.211C435.395 119.464 434.198 119.09 432.659 119.09C431.341 119.09 429.374 119.09 426.759 119.09C426.759 120.584 426.759 123.573 426.759 128.055ZM442.35 140.152C443.559 136.219 445.987 128.341 449.634 116.519C450.469 116.519 452.128 116.519 454.611 116.519C455.842 120.452 458.281 128.33 461.929 140.152C461.423 140.152 460.435 140.152 458.962 140.152C458.677 139.163 458.072 137.175 457.149 134.186C455.479 134.186 452.128 134.186 447.096 134.186C446.789 135.175 446.184 137.164 445.284 140.152C444.778 140.152 443.8 140.152 442.35 140.152ZM447.789 131.615C449.239 131.615 452.117 131.615 456.424 131.615C455.743 129.396 454.392 124.935 452.37 118.233C452.282 118.233 452.117 118.233 451.876 118.233C451.195 120.474 449.832 124.935 447.789 131.615ZM473.993 140.614C471.18 140.614 468.939 139.801 467.268 138.175C465.598 136.548 464.763 134.175 464.763 131.055C464.763 129.846 464.763 128.044 464.763 125.649C464.763 122.507 465.598 120.123 467.268 118.497C468.939 116.871 471.18 116.058 473.993 116.058C476.783 116.058 478.926 116.838 480.42 118.398C481.914 119.936 482.661 122.057 482.661 124.759C482.661 124.803 482.661 124.858 482.661 124.924C482.2 124.924 481.266 124.924 479.86 124.924C479.86 124.88 479.86 124.792 479.86 124.66C479.86 122.881 479.387 121.419 478.442 120.277C477.475 119.156 475.992 118.596 473.993 118.596C471.993 118.596 470.433 119.2 469.312 120.409C468.169 121.639 467.598 123.364 467.598 125.583C467.598 126.814 467.598 128.66 467.598 131.121C467.598 133.318 468.169 135.032 469.312 136.263C470.433 137.493 471.993 138.109 473.993 138.109C475.992 138.109 477.475 137.537 478.442 136.395C479.387 135.252 479.86 133.791 479.86 132.011C479.86 131.901 479.86 131.725 479.86 131.483C480.321 131.483 481.255 131.483 482.661 131.483C482.661 131.549 482.661 131.692 482.661 131.912C482.661 134.615 481.914 136.746 480.42 138.306C478.926 139.845 476.783 140.614 473.993 140.614ZM492.912 140.152C492.912 136.636 492.912 129.616 492.912 119.09C491.638 119.09 489.111 119.09 485.331 119.09C485.331 118.673 485.331 117.816 485.331 116.519C488.32 116.519 494.318 116.519 503.328 116.519C503.328 116.959 503.328 117.816 503.328 119.09C502.075 119.09 499.548 119.09 495.747 119.09C495.747 122.606 495.747 129.627 495.747 140.152C495.285 140.152 494.34 140.152 492.912 140.152Z"
          fill="#F0EAE6"/>
    <path d="M141.492 93.2584V24.2336H152.056V52.9203H153.689C157.982 48.1714 166.527 38.6115 179.338 24.2336H193.168C187.979 29.9489 177.642 41.2759 162.144 58.2145C167.519 64.054 178.249 75.733 194.319 93.2584H180.006C175.651 88.3784 166.879 78.6252 153.689 63.9919H152.056V93.2584H141.492Z"
          fill="#F0EAE6"/>
    <path d="M197.196 93.2584C200.463 81.7727 206.995 58.7598 216.787 24.2336H235.517C238.783 35.7194 245.316 58.7322 255.108 93.2584H244.158C243.387 90.5664 241.884 85.1411 239.645 76.9893H212.66C211.957 79.6812 210.448 85.1066 208.146 93.2584H197.196ZM215.347 67.167H236.957C235.29 61.0722 231.961 48.9721 226.972 30.8738H225.339C223.671 36.9066 220.343 49.0066 215.354 67.167H215.347Z"
          fill="#F0EAE6"/>
    <path d="M261.845 93.2584V24.2336H289.409C298.567 24.2336 305.575 26.5805 310.44 31.2604C315.367 35.9471 317.834 42.9739 317.834 52.3405V65.2413C317.834 74.6769 315.367 81.7037 310.44 86.3214C305.575 90.9392 298.56 93.2515 289.409 93.2515H261.845V93.2584ZM272.602 83.6295H289.505C295.459 83.6295 299.876 82.1247 302.763 79.1083C305.644 76.0298 307.084 71.5018 307.084 65.5312V51.954C307.084 45.9212 305.644 41.4277 302.763 38.4735C299.883 35.5261 295.466 34.049 289.505 34.049H272.602V83.6295Z"
          fill="#F0EAE6"/>
    <path d="M329.837 93.2584V24.2336H373.154V33.9592H340.401V53.6934H370.466V63.419H340.401V83.6364H373.636V93.2653H329.837V93.2584Z"
          fill="#F0EAE6"/>
    <path d="M384.788 93.2584V24.2336H405.247C408.321 34.5666 414.53 55.1981 423.881 86.135H425.514V24.2336H435.981V93.2584H415.522C412.449 82.9253 406.24 62.2593 396.889 31.2603H395.256V93.2584H384.788Z"
          fill="#F0EAE6"/>
    <path d="M445.285 93.2584C448.552 81.7726 455.084 58.7598 464.877 24.2336H483.606C486.873 35.7193 493.405 58.7322 503.197 93.2584H492.248C491.476 90.5664 489.974 85.141 487.734 76.9892H460.749C460.046 79.6812 458.537 85.1065 456.235 93.2584H445.285ZM463.436 67.167H485.046C483.379 61.0721 480.051 48.9721 475.061 30.8738H473.428C471.761 36.9065 468.432 49.0066 463.443 67.167H463.436Z"
          fill="#F0EAE6"/>
    <path d="M121.021 116.729H79.0271L78.9995 116.709L78.6687 116.453L26.6279 75.832L47.928 58.7484L120.669 116.453L121.021 116.729Z"
          fill="#4A9079"/>
    <path d="M121.021 0.768066H79.0271L78.9995 0.788774L78.6687 1.04417L26.6279 41.6652L47.928 58.7489L120.669 1.04417L121.021 0.768066Z"
          fill="#4A9079"/>
    <path d="M26.6353 61.3235V75.7911V75.8394L26.6422 116.454V116.73L26.6146 116.709L26.2907 116.454L0.966304 96.4364L0.904285 96.3881L0.539062 96.1051V21.3927L0.904285 21.1097L0.966304 21.0613L26.2907 1.04417L26.6146 0.788774L26.6422 0.768066V1.04417L26.6353 41.6583V41.7067V58.7489V61.3235Z"
          fill="#4A9079"/>
</svg>
