<svg width="505" height="151" viewBox="0 0 505 151" fill="none" xmlns="http://www.w3.org/2000/svg">
    <path d="M424.148 140.152C424.148 136.219 424.148 128.341 424.148 116.519C425.665 116.519 428.675 116.519 433.18 116.519C434.608 116.519 435.883 116.794 437.003 117.343C438.102 117.892 438.981 118.673 439.64 119.683C440.299 120.716 440.629 121.947 440.629 123.375C440.629 123.485 440.629 123.628 440.629 123.804C440.629 125.232 440.288 126.451 439.607 127.462C438.948 128.495 438.058 129.286 436.937 129.835C435.817 130.363 434.564 130.626 433.18 130.626C431.817 130.626 429.752 130.626 426.983 130.626C426.983 132.209 426.983 135.384 426.983 140.152C426.5 140.152 425.555 140.152 424.148 140.152ZM426.983 128.055C427.972 128.055 429.939 128.055 432.883 128.055C434.399 128.055 435.597 127.682 436.476 126.935C437.355 126.188 437.794 125.122 437.794 123.738C437.794 123.672 437.794 123.562 437.794 123.408C437.794 122.046 437.355 120.98 436.476 120.211C435.619 119.464 434.421 119.09 432.883 119.09C431.565 119.09 429.598 119.09 426.983 119.09C426.983 120.584 426.983 123.573 426.983 128.055ZM442.574 140.152C443.782 136.219 446.21 128.341 449.858 116.519C450.693 116.519 452.352 116.519 454.835 116.519C456.066 120.452 458.505 128.33 462.152 140.152C461.647 140.152 460.658 140.152 459.186 140.152C458.9 139.163 458.296 137.175 457.373 134.186C455.703 134.186 452.352 134.186 447.32 134.186C447.012 135.175 446.408 137.164 445.507 140.152C445.002 140.152 444.024 140.152 442.574 140.152ZM448.012 131.615C449.462 131.615 452.341 131.615 456.648 131.615C455.967 129.396 454.615 124.935 452.594 118.233C452.506 118.233 452.341 118.233 452.099 118.233C451.418 120.474 450.056 124.935 448.012 131.615ZM474.216 140.614C471.403 140.614 469.162 139.801 467.492 138.175C465.822 136.548 464.987 134.175 464.987 131.055C464.987 129.846 464.987 128.044 464.987 125.649C464.987 122.507 465.822 120.123 467.492 118.497C469.162 116.871 471.403 116.058 474.216 116.058C477.007 116.058 479.149 116.838 480.644 118.398C482.138 119.936 482.885 122.057 482.885 124.759C482.885 124.803 482.885 124.858 482.885 124.924C482.423 124.924 481.49 124.924 480.083 124.924C480.083 124.88 480.083 124.792 480.083 124.66C480.083 122.881 479.611 121.419 478.666 120.277C477.699 119.156 476.216 118.596 474.216 118.596C472.217 118.596 470.656 119.2 469.536 120.409C468.393 121.639 467.822 123.364 467.822 125.583C467.822 126.814 467.822 128.66 467.822 131.121C467.822 133.318 468.393 135.032 469.536 136.263C470.656 137.493 472.217 138.109 474.216 138.109C476.216 138.109 477.699 137.537 478.666 136.395C479.611 135.252 480.083 133.791 480.083 132.011C480.083 131.901 480.083 131.725 480.083 131.483C480.545 131.483 481.479 131.483 482.885 131.483C482.885 131.549 482.885 131.692 482.885 131.912C482.885 134.615 482.138 136.746 480.644 138.306C479.149 139.845 477.007 140.614 474.216 140.614ZM493.136 140.152C493.136 136.636 493.136 129.616 493.136 119.09C491.861 119.09 489.334 119.09 485.555 119.09C485.555 118.673 485.555 117.816 485.555 116.519C488.543 116.519 494.542 116.519 503.551 116.519C503.551 116.959 503.551 117.816 503.551 119.09C502.299 119.09 499.772 119.09 495.97 119.09C495.97 122.606 495.97 129.627 495.97 140.152C495.509 140.152 494.564 140.152 493.136 140.152Z"
          fill="#0D1821"/>
    <path d="M141.716 93.2584V24.2336H152.28V52.9203H153.913C158.206 48.1714 166.751 38.6115 179.561 24.2336H193.391C188.202 29.9489 177.866 41.2759 162.368 58.2145C167.743 64.054 178.472 75.733 194.542 93.2584H180.23C175.874 88.3784 167.102 78.6252 153.913 63.9919H152.28V93.2584H141.716Z"
          fill="#0D1821"/>
    <path d="M197.42 93.2584C200.686 81.7727 207.219 58.7598 217.011 24.2336H235.741C239.007 35.7194 245.54 58.7322 255.332 93.2584H244.382C243.61 90.5664 242.108 85.1411 239.868 76.9893H212.883C212.18 79.6812 210.671 85.1066 208.37 93.2584H197.42ZM215.571 67.167H237.181C235.513 61.0722 232.185 48.9721 227.196 30.8738H225.563C223.895 36.9066 220.567 49.0066 215.578 67.167H215.571Z"
          fill="#0D1821"/>
    <path d="M262.068 93.2584V24.2336H289.632C298.79 24.2336 305.799 26.5805 310.664 31.2604C315.591 35.9471 318.058 42.9739 318.058 52.3405V65.2413C318.058 74.6769 315.591 81.7037 310.664 86.3214C305.799 90.9392 298.784 93.2515 289.632 93.2515H262.068V93.2584ZM272.825 83.6295H289.729C295.683 83.6295 300.1 82.1247 302.987 79.1083C305.868 76.0298 307.308 71.5018 307.308 65.5312V51.954C307.308 45.9212 305.868 41.4277 302.987 38.4735C300.107 35.5261 295.69 34.049 289.729 34.049H272.825V83.6295Z"
          fill="#0D1821"/>
    <path d="M330.061 93.2584V24.2336H373.377V33.9592H340.624V53.6934H370.69V63.419H340.624V83.6364H373.86V93.2653H330.061V93.2584Z"
          fill="#0D1821"/>
    <path d="M385.012 93.2584V24.2336H405.471C408.544 34.5666 414.753 55.1981 424.104 86.135H425.737V24.2336H436.205V93.2584H415.746C412.672 82.9253 406.463 62.2593 397.112 31.2603H395.479V93.2584H385.012Z"
          fill="#0D1821"/>
    <path d="M445.509 93.2584C448.775 81.7726 455.308 58.7598 465.1 24.2336H483.83C487.096 35.7193 493.629 58.7322 503.421 93.2584H492.471C491.699 90.5664 490.197 85.141 487.957 76.9892H460.972C460.269 79.6812 458.76 85.1065 456.459 93.2584H445.509ZM463.66 67.167H485.27C483.602 61.0721 480.274 48.9721 475.285 30.8738H473.652C471.984 36.9065 468.656 49.0066 463.667 67.167H463.66Z"
          fill="#0D1821"/>
    <path d="M121.244 116.729H79.2507L79.2231 116.709L78.8924 116.453L26.8516 75.832L48.1516 58.7484L120.893 116.453L121.244 116.729Z"
          fill="#4A9079"/>
    <path d="M121.244 0.768066H79.2507L79.2231 0.788774L78.8924 1.04417L26.8516 41.6652L48.1516 58.7489L120.893 1.04417L121.244 0.768066Z"
          fill="#4A9079"/>
    <path d="M26.8589 61.3235V75.7911V75.8394L26.8658 116.454V116.73L26.8382 116.709L26.5144 116.454L1.18994 96.4364L1.12792 96.3881L0.762695 96.1051V21.3927L1.12792 21.1097L1.18994 21.0613L26.5144 1.04417L26.8382 0.788774L26.8658 0.768066V1.04417L26.8589 41.6583V41.7067V58.7489V61.3235Z"
          fill="#4A9079"/>
</svg>
